<svg id="visual" viewBox="0 0 900 600" width="900" height="600" xmlns="http://www.w3.org/2000/svg" xmlns:xlink="http://www.w3.org/1999/xlink" version="1.1"><rect x="0" y="0" width="900" height="600" fill="#030f19"></rect><defs><linearGradient id="grad1_0" x1="33.3%" y1="100%" x2="100%" y2="0%"><stop offset="20%" stop-color="#1e4b8f" stop-opacity="1"></stop><stop offset="80%" stop-color="#1e4b8f" stop-opacity="1"></stop></linearGradient></defs><defs><linearGradient id="grad1_1" x1="33.3%" y1="100%" x2="100%" y2="0%"><stop offset="20%" stop-color="#1e4b8f" stop-opacity="1"></stop><stop offset="80%" stop-color="#053865" stop-opacity="1"></stop></linearGradient></defs><defs><linearGradient id="grad1_2" x1="33.3%" y1="100%" x2="100%" y2="0%"><stop offset="20%" stop-color="#05243d" stop-opacity="1"></stop><stop offset="80%" stop-color="#053865" stop-opacity="1"></stop></linearGradient></defs><defs><linearGradient id="grad1_3" x1="33.3%" y1="100%" x2="100%" y2="0%"><stop offset="20%" stop-color="#05243d" stop-opacity="1"></stop><stop offset="80%" stop-color="#030f19" stop-opacity="1"></stop></linearGradient></defs><defs><linearGradient id="grad2_0" x1="0%" y1="100%" x2="66.7%" y2="0%"><stop offset="20%" stop-color="#1e4b8f" stop-opacity="1"></stop><stop offset="80%" stop-color="#1e4b8f" stop-opacity="1"></stop></linearGradient></defs><defs><linearGradient id="grad2_1" x1="0%" y1="100%" x2="66.7%" y2="0%"><stop offset="20%" stop-color="#053865" stop-opacity="1"></stop><stop offset="80%" stop-color="#1e4b8f" stop-opacity="1"></stop></linearGradient></defs><defs><linearGradient id="grad2_2" x1="0%" y1="100%" x2="66.7%" y2="0%"><stop offset="20%" stop-color="#053865" stop-opacity="1"></stop><stop offset="80%" stop-color="#05243d" stop-opacity="1"></stop></linearGradient></defs><defs><linearGradient id="grad2_3" x1="0%" y1="100%" x2="66.7%" y2="0%"><stop offset="20%" stop-color="#030f19" stop-opacity="1"></stop><stop offset="80%" stop-color="#05243d" stop-opacity="1"></stop></linearGradient></defs><g transform="translate(900, 600)"><path d="M-432.7 0C-386 -22.2 -339.4 -44.4 -339.3 -77.4C-339.2 -110.4 -385.7 -154.2 -389.8 -187.7C-394 -221.2 -355.7 -244.4 -319 -254.4C-282.3 -264.4 -247 -261.2 -227.6 -285.4C-208.1 -309.5 -204.5 -360.9 -183.1 -380.2C-161.7 -399.5 -122.5 -386.6 -89 -390C-55.5 -393.4 -27.8 -413 0 -432.7L0 0Z" fill="#071a2a"></path><path d="M-324.5 0C-289.5 -16.7 -254.5 -33.3 -254.5 -58.1C-254.4 -82.8 -289.3 -115.7 -292.4 -140.8C-295.5 -165.9 -266.8 -183.3 -239.2 -190.8C-211.7 -198.3 -185.3 -195.9 -170.7 -214C-156.1 -232.1 -153.4 -270.7 -137.3 -285.2C-121.3 -299.6 -91.9 -289.9 -66.8 -292.5C-41.6 -295 -20.8 -309.8 0 -324.5L0 0Z" fill="#032e51"></path><path d="M-216.3 0C-193 -11.1 -169.7 -22.2 -169.6 -38.7C-169.6 -55.2 -192.8 -77.1 -194.9 -93.9C-197 -110.6 -177.9 -122.2 -159.5 -127.2C-141.1 -132.2 -123.5 -130.6 -113.8 -142.7C-104.1 -154.8 -102.3 -180.5 -91.5 -190.1C-80.8 -199.7 -61.2 -193.3 -44.5 -195C-27.8 -196.7 -13.9 -206.5 0 -216.3L0 0Z" fill="#0f427a"></path><path d="M-108.2 0C-96.5 -5.6 -84.8 -11.1 -84.8 -19.4C-84.8 -27.6 -96.4 -38.6 -97.5 -46.9C-98.5 -55.3 -88.9 -61.1 -79.7 -63.6C-70.6 -66.1 -61.8 -65.3 -56.9 -71.3C-52 -77.4 -51.1 -90.2 -45.8 -95.1C-40.4 -99.9 -30.6 -96.6 -22.3 -97.5C-13.9 -98.3 -6.9 -103.3 0 -108.2L0 0Z" fill="#1e4b8f"></path></g><g transform="translate(0, 0)"><path d="M432.7 0C410.5 27.3 388.3 54.5 385.1 87.9C381.9 121.3 397.7 160.8 381.1 183.5C364.5 206.2 315.4 212.1 290.1 231.3C264.8 250.5 263.2 283.1 251.3 315.1C239.3 347.1 216.9 378.6 187.7 389.8C158.6 401.1 122.7 392.1 90.3 395.8C57.9 399.6 29 416.1 0 432.7L0 0Z" fill="#071a2a"></path><path d="M324.5 0C307.9 20.4 291.2 40.9 288.8 65.9C286.4 91 298.3 120.6 285.8 137.6C273.4 154.7 236.5 159.1 217.5 173.5C198.6 187.9 197.4 212.3 188.4 236.3C179.5 260.3 162.6 283.9 140.8 292.4C118.9 300.8 92.1 294 67.8 296.9C43.5 299.7 21.7 312.1 0 324.5L0 0Z" fill="#032e51"></path><path d="M216.3 0C205.2 13.6 194.1 27.3 192.5 43.9C191 60.6 198.9 80.4 190.6 91.8C182.2 103.1 157.7 106.1 145 115.7C132.4 125.3 131.6 141.5 125.6 157.5C119.6 173.5 108.4 189.3 93.9 194.9C79.3 200.5 61.4 196 45.2 197.9C29 199.8 14.5 208.1 0 216.3L0 0Z" fill="#0f427a"></path><path d="M108.2 0C102.6 6.8 97.1 13.6 96.3 22C95.5 30.3 99.4 40.2 95.3 45.9C91.1 51.6 78.8 53 72.5 57.8C66.2 62.6 65.8 70.8 62.8 78.8C59.8 86.8 54.2 94.6 46.9 97.5C39.6 100.3 30.7 98 22.6 99C14.5 99.9 7.2 104 0 108.2L0 0Z" fill="#1e4b8f"></path></g></svg>