<svg id="visual" viewBox="0 0 900 600" width="900" height="600" xmlns="http://www.w3.org/2000/svg" xmlns:xlink="http://www.w3.org/1999/xlink" version="1.1"><g stroke-width="1" stroke-linejoin="bevel"><path d="M458 248L507 261L465 206Z" fill="#277297" stroke="#277297"></path><path d="M507 261L502 136L465 206Z" fill="#277297" stroke="#277297"></path><path d="M507 261L580 275L502 136Z" fill="#205a7a" stroke="#205a7a"></path><path d="M507 261L576 313L580 275Z" fill="#205a7a" stroke="#205a7a"></path><path d="M532 350L576 313L507 261Z" fill="#15384f" stroke="#15384f"></path><path d="M465 206L369 248L458 248Z" fill="#297ea6" stroke="#297ea6"></path><path d="M488 361L532 350L507 261Z" fill="#297ea6" stroke="#297ea6"></path><path d="M326 182L369 248L465 206Z" fill="#1d4e6b" stroke="#1d4e6b"></path><path d="M502 136L449 113L465 206Z" fill="#00101c" stroke="#00101c"></path><path d="M488 361L507 261L458 248Z" fill="#15384f" stroke="#15384f"></path><path d="M359 342L488 361L458 248Z" fill="#205a7a" stroke="#205a7a"></path><path d="M592 358L604 304L576 313Z" fill="#246688" stroke="#246688"></path><path d="M576 313L604 304L580 275Z" fill="#1d4e6b" stroke="#1d4e6b"></path><path d="M580 275L652 166L502 136Z" fill="#277297" stroke="#277297"></path><path d="M604 304L619 274L580 275Z" fill="#246688" stroke="#246688"></path><path d="M431 404L487 384L488 361Z" fill="#15384f" stroke="#15384f"></path><path d="M488 361L487 384L532 350Z" fill="#15384f" stroke="#15384f"></path><path d="M532 350L592 358L576 313Z" fill="#112e42" stroke="#112e42"></path><path d="M487 384L592 358L532 350Z" fill="#081a28" stroke="#081a28"></path><path d="M660 320L680 236L619 274Z" fill="#19435d" stroke="#19435d"></path><path d="M612 91L539 70L502 136Z" fill="#19435d" stroke="#19435d"></path><path d="M502 136L521 48L449 113Z" fill="#112e42" stroke="#112e42"></path><path d="M521 48L418 77L449 113Z" fill="#112e42" stroke="#112e42"></path><path d="M449 113L326 182L465 206Z" fill="#277297" stroke="#277297"></path><path d="M418 77L326 182L449 113Z" fill="#0c2435" stroke="#0c2435"></path><path d="M296 286L359 342L369 248Z" fill="#277297" stroke="#277297"></path><path d="M369 248L359 342L458 248Z" fill="#0c2435" stroke="#0c2435"></path><path d="M619 274L652 166L580 275Z" fill="#112e42" stroke="#112e42"></path><path d="M359 342L431 404L488 361Z" fill="#00101c" stroke="#00101c"></path><path d="M664 489L689 414L592 358Z" fill="#277297" stroke="#277297"></path><path d="M592 64L521 48L539 70Z" fill="#277297" stroke="#277297"></path><path d="M539 70L521 48L502 136Z" fill="#19435d" stroke="#19435d"></path><path d="M652 166L612 91L502 136Z" fill="#205a7a" stroke="#205a7a"></path><path d="M660 320L619 274L604 304Z" fill="#19435d" stroke="#19435d"></path><path d="M619 274L680 236L652 166Z" fill="#297ea6" stroke="#297ea6"></path><path d="M592 358L660 320L604 304Z" fill="#00101c" stroke="#00101c"></path><path d="M612 91L592 64L539 70Z" fill="#081a28" stroke="#081a28"></path><path d="M326 182L291 243L369 248Z" fill="#297ea6" stroke="#297ea6"></path><path d="M291 243L296 286L369 248Z" fill="#205a7a" stroke="#205a7a"></path><path d="M612 91L620 70L592 64Z" fill="#081a28" stroke="#081a28"></path><path d="M601 0L479 0L521 48Z" fill="#19435d" stroke="#19435d"></path><path d="M734 87L620 70L612 91Z" fill="#19435d" stroke="#19435d"></path><path d="M620 40L620 70L712 37Z" fill="#00101c" stroke="#00101c"></path><path d="M259 274L286 305L296 286Z" fill="#15384f" stroke="#15384f"></path><path d="M296 286L286 305L359 342Z" fill="#081a28" stroke="#081a28"></path><path d="M359 342L377 431L431 404Z" fill="#0c2435" stroke="#0c2435"></path><path d="M286 305L297 346L359 342Z" fill="#081a28" stroke="#081a28"></path><path d="M297 346L377 431L359 342Z" fill="#1d4e6b" stroke="#1d4e6b"></path><path d="M516 505L592 358L487 384Z" fill="#277297" stroke="#277297"></path><path d="M601 0L521 48L592 64Z" fill="#246688" stroke="#246688"></path><path d="M521 48L479 0L418 77Z" fill="#19435d" stroke="#19435d"></path><path d="M237 51L247 174L326 182Z" fill="#00101c" stroke="#00101c"></path><path d="M734 87L612 91L652 166Z" fill="#112e42" stroke="#112e42"></path><path d="M620 70L620 40L592 64Z" fill="#15384f" stroke="#15384f"></path><path d="M291 243L259 274L296 286Z" fill="#297ea6" stroke="#297ea6"></path><path d="M286 305L153 342L297 346Z" fill="#0c2435" stroke="#0c2435"></path><path d="M247 174L259 274L291 243Z" fill="#205a7a" stroke="#205a7a"></path><path d="M479 0L432 0L418 77Z" fill="#277297" stroke="#277297"></path><path d="M326 182L247 174L291 243Z" fill="#297ea6" stroke="#297ea6"></path><path d="M432 0L421 0L418 77Z" fill="#15384f" stroke="#15384f"></path><path d="M728 270L722 170L680 236Z" fill="#205a7a" stroke="#205a7a"></path><path d="M680 236L722 170L652 166Z" fill="#15384f" stroke="#15384f"></path><path d="M660 320L728 270L680 236Z" fill="#1d4e6b" stroke="#1d4e6b"></path><path d="M237 51L326 182L418 77Z" fill="#1d4e6b" stroke="#1d4e6b"></path><path d="M712 37L601 0L620 40Z" fill="#15384f" stroke="#15384f"></path><path d="M620 40L601 0L592 64Z" fill="#1d4e6b" stroke="#1d4e6b"></path><path d="M421 0L370 0L418 77Z" fill="#19435d" stroke="#19435d"></path><path d="M592 358L689 414L660 320Z" fill="#1d4e6b" stroke="#1d4e6b"></path><path d="M660 320L740 391L728 270Z" fill="#297ea6" stroke="#297ea6"></path><path d="M516 505L487 384L431 404Z" fill="#205a7a" stroke="#205a7a"></path><path d="M451 549L516 505L431 404Z" fill="#15384f" stroke="#15384f"></path><path d="M297 346L341 468L377 431Z" fill="#15384f" stroke="#15384f"></path><path d="M377 431L451 549L431 404Z" fill="#15384f" stroke="#15384f"></path><path d="M295 479L341 468L297 346Z" fill="#112e42" stroke="#112e42"></path><path d="M878 79L734 87L722 170Z" fill="#1d4e6b" stroke="#1d4e6b"></path><path d="M722 170L734 87L652 166Z" fill="#081a28" stroke="#081a28"></path><path d="M341 468L355 485L377 431Z" fill="#246688" stroke="#246688"></path><path d="M734 87L712 37L620 70Z" fill="#081a28" stroke="#081a28"></path><path d="M759 449L740 391L689 414Z" fill="#277297" stroke="#277297"></path><path d="M689 414L740 391L660 320Z" fill="#205a7a" stroke="#205a7a"></path><path d="M728 270L830 249L722 170Z" fill="#112e42" stroke="#112e42"></path><path d="M186 160L190 222L247 174Z" fill="#0c2435" stroke="#0c2435"></path><path d="M247 174L190 222L259 274Z" fill="#1d4e6b" stroke="#1d4e6b"></path><path d="M259 274L153 342L286 305Z" fill="#297ea6" stroke="#297ea6"></path><path d="M370 0L237 51L418 77Z" fill="#00101c" stroke="#00101c"></path><path d="M237 51L186 160L247 174Z" fill="#297ea6" stroke="#297ea6"></path><path d="M516 505L664 489L592 358Z" fill="#00101c" stroke="#00101c"></path><path d="M181 473L295 479L297 346Z" fill="#19435d" stroke="#19435d"></path><path d="M341 468L295 479L355 485Z" fill="#15384f" stroke="#15384f"></path><path d="M489 576L549 542L516 505Z" fill="#297ea6" stroke="#297ea6"></path><path d="M451 549L377 431L355 485Z" fill="#297ea6" stroke="#297ea6"></path><path d="M516 505L549 542L664 489Z" fill="#1d4e6b" stroke="#1d4e6b"></path><path d="M337 545L451 549L355 485Z" fill="#0c2435" stroke="#0c2435"></path><path d="M862 364L830 249L728 270Z" fill="#277297" stroke="#277297"></path><path d="M734 87L754 0L712 37Z" fill="#1d4e6b" stroke="#1d4e6b"></path><path d="M370 0L252 -18L237 51Z" fill="#112e42" stroke="#112e42"></path><path d="M103 0L92 148L186 160Z" fill="#112e42" stroke="#112e42"></path><path d="M421 0L252 -18L370 0Z" fill="#297ea6" stroke="#297ea6"></path><path d="M432 0L252 -18L421 0Z" fill="#297ea6" stroke="#297ea6"></path><path d="M479 0L252 -18L432 0Z" fill="#0c2435" stroke="#0c2435"></path><path d="M601 0L252 -18L479 0Z" fill="#246688" stroke="#246688"></path><path d="M452 600L489 576L451 549Z" fill="#246688" stroke="#246688"></path><path d="M451 549L489 576L516 505Z" fill="#112e42" stroke="#112e42"></path><path d="M549 542L697 541L664 489Z" fill="#277297" stroke="#277297"></path><path d="M252 -18L233 0L237 51Z" fill="#19435d" stroke="#19435d"></path><path d="M664 489L759 449L689 414Z" fill="#00101c" stroke="#00101c"></path><path d="M740 391L862 364L728 270Z" fill="#00101c" stroke="#00101c"></path><path d="M697 541L759 449L664 489Z" fill="#15384f" stroke="#15384f"></path><path d="M295 479L337 545L355 485Z" fill="#112e42" stroke="#112e42"></path><path d="M766 0L754 0L734 87Z" fill="#1d4e6b" stroke="#1d4e6b"></path><path d="M712 37L754 0L601 0Z" fill="#15384f" stroke="#15384f"></path><path d="M601 0L754 0L252 -18Z" fill="#1d4e6b" stroke="#1d4e6b"></path><path d="M92 148L139 276L190 222Z" fill="#0c2435" stroke="#0c2435"></path><path d="M190 222L139 276L259 274Z" fill="#1d4e6b" stroke="#1d4e6b"></path><path d="M295 479L247 543L337 545Z" fill="#246688" stroke="#246688"></path><path d="M122 290L139 276L92 148Z" fill="#00101c" stroke="#00101c"></path><path d="M139 276L153 342L259 274Z" fill="#0c2435" stroke="#0c2435"></path><path d="M878 79L766 0L734 87Z" fill="#081a28" stroke="#081a28"></path><path d="M754 0L766 0L252 -18Z" fill="#0c2435" stroke="#0c2435"></path><path d="M139 276L136 324L153 342Z" fill="#00101c" stroke="#00101c"></path><path d="M153 342L181 473L297 346Z" fill="#0c2435" stroke="#0c2435"></path><path d="M452 600L516 600L489 576Z" fill="#277297" stroke="#277297"></path><path d="M489 576L516 600L549 542Z" fill="#112e42" stroke="#112e42"></path><path d="M442 600L452 600L451 549Z" fill="#297ea6" stroke="#297ea6"></path><path d="M92 148L190 222L186 160Z" fill="#1d4e6b" stroke="#1d4e6b"></path><path d="M139 276L122 290L136 324Z" fill="#1d4e6b" stroke="#1d4e6b"></path><path d="M346 600L442 600L451 549Z" fill="#15384f" stroke="#15384f"></path><path d="M516 600L697 541L549 542Z" fill="#081a28" stroke="#081a28"></path><path d="M800 533L793 459L759 449Z" fill="#0c2435" stroke="#0c2435"></path><path d="M759 449L793 459L740 391Z" fill="#1d4e6b" stroke="#1d4e6b"></path><path d="M800 533L802 465L793 459Z" fill="#1d4e6b" stroke="#1d4e6b"></path><path d="M793 459L862 364L740 391Z" fill="#0c2435" stroke="#0c2435"></path><path d="M120 376L181 473L153 342Z" fill="#246688" stroke="#246688"></path><path d="M337 545L346 600L451 549Z" fill="#205a7a" stroke="#205a7a"></path><path d="M120 376L153 342L136 324Z" fill="#246688" stroke="#246688"></path><path d="M742 600L715 552L697 541Z" fill="#00101c" stroke="#00101c"></path><path d="M697 541L715 552L759 449Z" fill="#246688" stroke="#246688"></path><path d="M181 473L247 543L295 479Z" fill="#081a28" stroke="#081a28"></path><path d="M296 606L346 600L337 545Z" fill="#0c2435" stroke="#0c2435"></path><path d="M122 290L120 376L136 324Z" fill="#00101c" stroke="#00101c"></path><path d="M802 465L862 364L793 459Z" fill="#277297" stroke="#277297"></path><path d="M900 116L878 79L722 170Z" fill="#112e42" stroke="#112e42"></path><path d="M103 0L186 160L237 51Z" fill="#00101c" stroke="#00101c"></path><path d="M0 328L85 413L120 376Z" fill="#112e42" stroke="#112e42"></path><path d="M900 291L900 203L830 249Z" fill="#0c2435" stroke="#0c2435"></path><path d="M862 364L900 291L830 249Z" fill="#277297" stroke="#277297"></path><path d="M900 116L722 170L830 249Z" fill="#00101c" stroke="#00101c"></path><path d="M256 600L296 606L247 543Z" fill="#277297" stroke="#277297"></path><path d="M247 543L296 606L337 545Z" fill="#297ea6" stroke="#297ea6"></path><path d="M346 600L296 606L442 600Z" fill="#00101c" stroke="#00101c"></path><path d="M442 600L296 606L452 600Z" fill="#112e42" stroke="#112e42"></path><path d="M452 600L296 606L516 600Z" fill="#277297" stroke="#277297"></path><path d="M900 203L900 116L830 249Z" fill="#277297" stroke="#277297"></path><path d="M802 465L900 380L862 364Z" fill="#15384f" stroke="#15384f"></path><path d="M862 364L900 380L900 291Z" fill="#1d4e6b" stroke="#1d4e6b"></path><path d="M715 552L800 533L759 449Z" fill="#00101c" stroke="#00101c"></path><path d="M770 600L800 533L715 552Z" fill="#277297" stroke="#277297"></path><path d="M164 600L247 543L181 473Z" fill="#0c2435" stroke="#0c2435"></path><path d="M164 600L256 600L247 543Z" fill="#00101c" stroke="#00101c"></path><path d="M900 501L900 380L802 465Z" fill="#1d4e6b" stroke="#1d4e6b"></path><path d="M0 328L120 376L122 290Z" fill="#0c2435" stroke="#0c2435"></path><path d="M120 376L85 413L181 473Z" fill="#205a7a" stroke="#205a7a"></path><path d="M296 606L742 600L516 600Z" fill="#277297" stroke="#277297"></path><path d="M516 600L742 600L697 541Z" fill="#297ea6" stroke="#297ea6"></path><path d="M900 116L900 54L878 79Z" fill="#0c2435" stroke="#0c2435"></path><path d="M878 79L893 0L766 0Z" fill="#205a7a" stroke="#205a7a"></path><path d="M252 -18L103 0L233 0Z" fill="#19435d" stroke="#19435d"></path><path d="M233 0L103 0L237 51Z" fill="#1d4e6b" stroke="#1d4e6b"></path><path d="M296 606L770 600L742 600Z" fill="#205a7a" stroke="#205a7a"></path><path d="M742 600L770 600L715 552Z" fill="#00101c" stroke="#00101c"></path><path d="M800 533L900 501L802 465Z" fill="#1d4e6b" stroke="#1d4e6b"></path><path d="M32 470L81 455L85 413Z" fill="#112e42" stroke="#112e42"></path><path d="M85 413L81 455L181 473Z" fill="#15384f" stroke="#15384f"></path><path d="M770 600L808 570L800 533Z" fill="#1d4e6b" stroke="#1d4e6b"></path><path d="M900 54L893 0L878 79Z" fill="#15384f" stroke="#15384f"></path><path d="M766 0L893 0L252 -18Z" fill="#297ea6" stroke="#297ea6"></path><path d="M900 54L900 0L893 0Z" fill="#277297" stroke="#277297"></path><path d="M893 0L900 0L252 -18Z" fill="#19435d" stroke="#19435d"></path><path d="M256 600L164 600L296 606Z" fill="#277297" stroke="#277297"></path><path d="M148 600L164 600L181 473Z" fill="#277297" stroke="#277297"></path><path d="M103 0L10 103L92 148Z" fill="#112e42" stroke="#112e42"></path><path d="M92 148L0 159L122 290Z" fill="#297ea6" stroke="#297ea6"></path><path d="M252 -18L55 0L103 0Z" fill="#297ea6" stroke="#297ea6"></path><path d="M900 578L800 533L808 570Z" fill="#0c2435" stroke="#0c2435"></path><path d="M900 578L900 501L800 533Z" fill="#277297" stroke="#277297"></path><path d="M0 129L0 159L92 148Z" fill="#19435d" stroke="#19435d"></path><path d="M55 0L10 103L103 0Z" fill="#0c2435" stroke="#0c2435"></path><path d="M-24 184L0 328L122 290Z" fill="#277297" stroke="#277297"></path><path d="M81 455L148 600L181 473Z" fill="#1d4e6b" stroke="#1d4e6b"></path><path d="M10 103L0 129L92 148Z" fill="#277297" stroke="#277297"></path><path d="M32 470L148 600L81 455Z" fill="#0c2435" stroke="#0c2435"></path><path d="M164 600L0 615L296 606Z" fill="#1d4e6b" stroke="#1d4e6b"></path><path d="M0 0L0 104L10 103Z" fill="#15384f" stroke="#15384f"></path><path d="M10 103L0 104L0 129Z" fill="#15384f" stroke="#15384f"></path><path d="M0 104L-24 184L0 129Z" fill="#19435d" stroke="#19435d"></path><path d="M0 129L-24 184L0 159Z" fill="#246688" stroke="#246688"></path><path d="M0 159L-24 184L122 290Z" fill="#205a7a" stroke="#205a7a"></path><path d="M0 437L32 470L85 413Z" fill="#0c2435" stroke="#0c2435"></path><path d="M-24 184L0 395L0 328Z" fill="#15384f" stroke="#15384f"></path><path d="M0 328L0 395L85 413Z" fill="#19435d" stroke="#19435d"></path><path d="M770 600L863 600L808 570Z" fill="#081a28" stroke="#081a28"></path><path d="M0 615L863 600L770 600Z" fill="#277297" stroke="#277297"></path><path d="M-24 184L0 437L0 395Z" fill="#15384f" stroke="#15384f"></path><path d="M0 395L0 437L85 413Z" fill="#205a7a" stroke="#205a7a"></path><path d="M32 470L12 600L148 600Z" fill="#277297" stroke="#277297"></path><path d="M863 600L900 578L808 570Z" fill="#246688" stroke="#246688"></path><path d="M0 104L0 0L-24 184Z" fill="#112e42" stroke="#112e42"></path><path d="M55 0L0 0L10 103Z" fill="#081a28" stroke="#081a28"></path><path d="M252 -18L0 0L55 0Z" fill="#0c2435" stroke="#0c2435"></path><path d="M0 615L900 600L863 600Z" fill="#081a28" stroke="#081a28"></path><path d="M863 600L900 600L900 578Z" fill="#112e42" stroke="#112e42"></path><path d="M148 600L0 615L164 600Z" fill="#297ea6" stroke="#297ea6"></path><path d="M0 600L12 600L32 470Z" fill="#15384f" stroke="#15384f"></path><path d="M0 600L32 470L0 437Z" fill="#081a28" stroke="#081a28"></path><path d="M-24 184L0 600L0 437Z" fill="#277297" stroke="#277297"></path><path d="M12 600L0 615L148 600Z" fill="#246688" stroke="#246688"></path><path d="M-24 184L0 615L0 600Z" fill="#112e42" stroke="#112e42"></path><path d="M0 600L0 615L12 600Z" fill="#00101c" stroke="#00101c"></path><path d="M296 606L0 615L770 600Z" fill="#19435d" stroke="#19435d"></path></g></svg>